<svg width="197" height="301" viewBox="0 0 197 301" fill="none" xmlns="http://www.w3.org/2000/svg">
<path d="M88.0156 276.633C92.6211 283.797 103.367 283.797 107.973 276.633C182.684 169.172 196.5 157.914 196.5 118C196.5 63.7578 152.492 19.75 98.25 19.75C43.4961 19.75 0 63.7578 0 118C0 157.914 13.3047 169.172 88.0156 276.633Z" fill="#740008"/>
<path d="M98.375 111.25C115.055 111.25 128.875 97.668 128.875 80.75C128.875 64.0703 115.055 50.25 98.375 50.25C81.457 50.25 67.875 64.0703 67.875 80.75C67.875 97.668 81.457 111.25 98.375 111.25ZM119.582 118.875H115.531C110.289 121.496 104.57 122.688 98.375 122.688C92.1797 122.688 86.2227 121.496 80.9805 118.875H76.9297C59.2969 118.875 45 133.41 45 151.043V160.812C45 167.246 50.0039 172.25 56.4375 172.25H140.312C146.508 172.25 151.75 167.246 151.75 160.812V151.043C151.75 133.41 137.215 118.875 119.582 118.875Z" fill="white"/>
</svg>
